HIERARCHY
ROOT Hips
{
  OFFSET -125.086 92.215 135.881
  CHANNELS 6 Xposition Yposition Zposition Zrotation Xrotation Yrotation
  JOINT LeftUpLeg
  {
    OFFSET 8.64259 1.95398 -2.38835
    CHANNELS 3 Zrotation Xrotation Yrotation
    JOINT LeftLeg
    {
      OFFSET 43.7702 0 0
      CHANNELS 3 Zrotation Xrotation Yrotation
      JOINT LeftFoot
      {
        OFFSET 40.6238 0 0
        CHANNELS 3 Zrotation Xrotation Yrotation
        JOINT LeftToeBase
        {
          OFFSET 12.7242 0 0
          CHANNELS 3 Zrotation Xrotation Yrotation
          End Site
          {
            OFFSET 0 0 0
          }
        }
      }
    }
  }
  JOINT RightUpLeg
  {
    OFFSET -8.2249 1.95398 -2.59336
    CHANNELS 3 Zrotation Xrotation Yrotation
    JOINT RightLeg
    {
      OFFSET 43.5653 0 0
      CHANNELS 3 Zrotation Xrotation Yrotation
      JOINT RightFoot
      {
        OFFSET 40.6238 0 0
        CHANNELS 3 Zrotation Xrotation Yrotation
        JOINT RightToeBase
        {
          OFFSET 12.7242 0 0
          CHANNELS 3 Zrotation Xrotation Yrotation
          End Site
          {
            OFFSET 0 0 0
          }
        }
      }
    }
  }
  JOINT Spine
  {
    OFFSET 0.165834 0.87714 6.61349
    CHANNELS 3 Zrotation Xrotation Yrotation
    JOINT Spine1
    {
      OFFSET 7.38963 1.71661e-005 0
      CHANNELS 3 Zrotation Xrotation Yrotation
      JOINT Spine2
      {
        OFFSET 11.9445 1.14441e-005 0
        CHANNELS 3 Zrotation Xrotation Yrotation
        JOINT Spine3
        {
          OFFSET 14.7254 4.19617e-005 0
          CHANNELS 3 Zrotation Xrotation Yrotation
          JOINT Spine4
          {
            OFFSET 10.9679 0 0
            CHANNELS 3 Zrotation Xrotation Yrotation
            JOINT RightShoulder
            {
              OFFSET 2.46616 -1.6653 3.69651
              CHANNELS 3 Zrotation Xrotation Yrotation
              JOINT RightArm
              {
                OFFSET 13.0012 0 0
                CHANNELS 3 Zrotation Xrotation Yrotation
                JOINT RightForeArm
                {
                  OFFSET 28.7848 1.52588e-005 0
                  CHANNELS 3 Zrotation Xrotation Yrotation
                  JOINT RightHand
                  {
                    OFFSET 26.5688 1.52588e-005 0
                    CHANNELS 3 Zrotation Xrotation Yrotation
                    End Site
                    {
                      OFFSET 0 0 0
                    }
                  }
                }
              }
            }
            JOINT LeftShoulder
            {
              OFFSET 2.38034 -1.29275 -3.7523
              CHANNELS 3 Zrotation Xrotation Yrotation
              JOINT LeftArm
              {
                OFFSET 16.3182 6.10352e-005 0
                CHANNELS 3 Zrotation Xrotation Yrotation
                JOINT LeftForeArm
                {
                  OFFSET 27.0901 0 0
                  CHANNELS 3 Zrotation Xrotation Yrotation
                  JOINT LeftHand
                  {
                    OFFSET 24.5451 1.52588e-005 0
                    CHANNELS 3 Zrotation Xrotation Yrotation
                    End Site
                    {
                      OFFSET 0 0 0
                    }
                  }
                }
              }
            }
            JOINT Neck
            {
              OFFSET 5.0226 -0.0266342 0
              CHANNELS 3 Zrotation Xrotation Yrotation
              JOINT Head
              {
                OFFSET 6.69363 2.86102e-005 0
                CHANNELS 3 Zrotation Xrotation Yrotation
                End Site
                {
                  OFFSET 0 0 0
                }
              }
            }
          }
        }
      }
    }
  }
}
MOTION
Frames:	12
Frame Time:	0.0416667
-163.906 91.8474 151.654 99.0222 43.7083 85.8395 -179.201 19.3956 88.3517 -7.61781 8.30668 1.97854 56.7686 1.85901 3.19543 50.8845 -0.922155 12.2752 175.273 -6.08053 91.0875 -33.0329 -8.06762 -1.25883 68.1441 -1.23744 17.8156 48.8805 -3.05963 0.814393 0.544699 7.75544 -90.5675 11.3662 0.819233 -1.21236 -0.305049 0.765107 -1.24723 -22.8394 1.1457 -0.910112 -2.8268 1.14572 -0.910116 108.878 -49.3883 -71.6271 29.3338 -6.86962 -13.8135 -11.9848 -19.3806 -43.9259 -12.7795 -0.428254 -1.32904 -71.5647 -50.5037 106.356 -39.6136 -21.1695 -7.44137 11.4462 65.2136 -2.15321 -13.7919 0.265314 -7.92774 6.43431 2.81426 -11.4292 -22.0258 2.25471 17.088 
-155.859 90.7082 143.559 100.139 42.2994 83.9497 -179.758 19.9031 86.5889 -19.8626 14.8497 2.5171 50.0115 -2.25993 8.27793 47.8289 -1.10799 8.44807 173.465 -7.35455 86.9652 -40.9021 -11.5669 -2.0974 52.8888 2.98991 22.1248 59.141 -3.06583 10.9865 0.607904 7.77667 -90.166 11.3251 1.1325 -0.442058 -0.345446 1.11194 -0.491487 -22.8847 1.21298 -0.0812165 -2.87207 1.21298 -0.0812185 109.397 -50.2424 -70.9355 30.2612 -6.70523 -11.7163 -12.914 -22.2626 -42.4054 -11.9158 -0.454483 -0.778381 -72.0822 -49.2686 105.699 -39.6785 -20.618 -7.77162 12.2052 63.7021 -3.46977 -13.4511 0.204758 -7.41778 7.52355 3.20625 -14.0937 -24.0361 2.95942 17.288 
-148.395 90.2505 136.265 103.612 43.3116 78.7603 -179.245 17.8557 82.7571 -34.1966 15.6775 2.4073 58.1052 1.99149 13.6681 39.9032 -1.02447 2.06242 172.313 1.73373 82.9578 -62.7285 -14.2533 -2.79825 38.7824 6.9477 20.2558 31.774 -0.380209 2.21624 0.255104 8.01216 -89.6929 10.8451 0.649796 0.549334 -0.825808 0.673334 0.520199 -23.3606 0.454648 0.719217 -3.34793 0.454663 0.719223 110.017 -50.7388 -70.0511 32.0982 -5.64411 -9.99584 -9.83361 -25.2123 -34.6344 -12.6465 -0.599153 0.362386 -72.8477 -48.6336 104.586 -40.5252 -17.4894 -12.8374 11.7123 61.7524 -4.19846 -12.6538 0.202132 -7.64172 7.50532 3.89021 -15.5922 -23.9659 3.50977 19.7386 
-141.124 91.7226 129.232 105.038 45.6632 79.2788 -178.551 10.1582 84.1688 -34.9933 17.4292 4.05767 64.1148 6.01316 14.3425 40.0798 -1.00279 2.37116 171.827 14.2834 86.3931 -72.7458 -13.6452 -1.82683 43.0977 5.38071 15.6972 35.7225 -0.83663 -6.64366 -0.12145 8.0175 -89.9002 10.8411 -0.195517 0.218524 -0.829842 -0.185707 0.226914 -23.3652 -0.252165 0.149663 -3.35253 -0.252164 0.149656 109.624 -50.5774 -70.6313 33.0663 -3.22017 -8.55607 -5.50288 -28.9296 -23.9903 -12.7629 -0.727858 1.49848 -72.9619 -48.8202 104.393 -40.8792 -11.8663 -20.5285 12.0623 58.9865 -7.53475 -9.82869 0.0559314 -6.52113 5.33745 4.88225 -15.43 -23.8767 3.90997 21.2682 
-134.01 93.127 122.775 105.307 50.4666 80.7989 -177.341 3.48084 87.0742 -33.4205 20.6476 5.7109 67.0218 8.17147 12.9011 41.4106 -1.08638 1.96859 169.58 21.367 88.8968 -61.7936 -7.5361 1.11513 51.7807 1.95022 14.6445 38.3392 -1.43189 -4.41892 -0.54583 7.9238 -90.1794 11.0254 -1.16972 -0.244858 -0.645052 -1.17934 -0.193133 -23.1835 -1.04204 -0.585114 -3.17089 -1.04204 -0.585123 109.846 -51.3796 -70.4068 32.5548 0.691029 -4.92426 -3.98181 -32.0396 -17.9112 -10.8115 -0.699323 2.43266 -73.6403 -47.3201 103.464 -40.6742 -4.5605 -27.0028 14.8709 51.5675 -16.3568 -6.86667 0.0393091 -7.67768 5.92994 4.18504 -15.7468 -25.1643 3.31678 20.2133 
-127.035 93.9277 116.657 105.256 54.6862 79.8555 -176.455 -2.69307 87.5459 -30.2507 22.7132 6.37499 67.5957 9.01658 10.623 44.5489 -1.19946 6.32518 171.227 20.5591 87.2843 -32.5393 -0.792008 2.72666 54.2119 1.32776 15.6342 43.9173 -2.54098 -5.2042 -0.86084 7.91265 -90.1563 11.0486 -1.78599 -0.139803 -0.621061 -1.79042 -0.06104 -23.165 -1.6614 -0.67025 -3.15235 -1.66138 -0.670249 110.749 -52.2475 -69.1698 32.2315 4.56934 -2.22813 -3.11341 -33.5978 -13.2959 -9.94762 -0.645963 2.38434 -74.1284 -46.5091 102.754 -38.6354 1.20914 -32.6739 15.6226 40.3688 -25.1522 -3.898 -0.0528648 -7.28998 7.33299 3.01324 -14.9941 -25.3281 2.50147 18.4611 
-119.758 93.9534 110.325 104.9 58.1924 78.1218 -176.445 -7.65669 89.319 -30.2606 26.0279 8.01564 65.4579 7.92358 7.46178 51.6288 -1.11854 9.33501 175.014 17.0389 84.4545 -6.99177 7.75557 0.253795 54.3926 1.83311 18.4316 46.0055 -3.0076 -5.64269 -1.04737 7.80103 -90.043 11.2733 -2.10432 0.122919 -0.396008 -2.09687 0.215443 -22.9442 -2.04395 -0.515478 -2.93156 -2.04395 -0.515483 111.31 -52.361 -68.3431 32.4882 7.29456 1.44341 -3.23397 -31.9367 -11.4505 -8.21355 -0.447881 1.25428 -74.6479 -46.2145 101.949 -37.3389 3.98237 -36.5905 18.5938 38.3205 -32.4467 -2.85197 -0.0752168 -7.76017 7.0358 1.8568 -13.3885 -24.2698 1.44139 16.9988 
-111.452 92.8436 102.972 105.193 57.2765 78.5426 -177.287 -10.1501 90.8823 -38.3892 26.3408 10.2823 60.3276 4.19584 2.93947 64.188 -1.36697 8.87941 175.358 18.6661 85.8206 -13.4256 -0.0171676 0.399682 48.7934 4.08119 15.3524 46.6051 -3.11836 -6.00459 -0.908038 7.79512 -90.376 11.2796 -1.98205 -0.551486 -0.389964 -2.00438 -0.463688 -22.9339 -1.72468 -1.12181 -2.92123 -1.72465 -1.12182 110.653 -51.9535 -69.2684 31.4909 8.65802 2.14514 -1.92667 -32.8651 -8.42252 -10.9698 -0.727741 2.62304 -74.2947 -46.9402 102.462 -37.4821 4.30206 -34.1891 20.2314 37.1266 -36.3419 -2.21978 -0.0962753 -9.08278 10.0587 1.44019 -9.80753 -25.6643 0.397742 16.6447 
-103.167 92.1279 95.5491 105.342 56.1458 81.3994 -177.812 -3.80731 94.8347 -52.772 14.1912 8.59265 42.6166 -4.39275 -7.92622 58.2756 -2.95158 -3.00108 174.901 20.5605 89.6227 -29.7164 -6.87146 2.04084 52.6672 3.51539 9.46934 36.3861 -1.13549 -1.64769 -0.85421 7.71693 -90.9862 11.4212 -2.16002 -1.74588 -0.248971 -2.23473 -1.64913 -22.783 -1.53559 -2.31421 -2.77033 -1.5356 -2.31421 110.586 -51.6853 -69.3271 29.8873 9.16433 -0.600922 -1.13595 -32.377 -6.76964 -12.9026 -0.985751 3.79781 -74.3504 -47.6158 102.331 -39.3843 1.74999 -26.8447 20.1297 40.361 -33.7007 -3.15876 -0.0604804 -8.74558 11.2032 1.91028 -8.59833 -25.8302 0.424625 17.7977 
-95.8749 92.7352 88.9481 106.665 55.7603 81.0937 179.637 8.0784 94.8041 -68.2806 6.47108 6.58206 45.6842 -1.8974 1.37124 58.1056 -1.53307 6.83941 174.673 15.6848 91.1871 -35.6608 -4.15294 2.53588 62.4649 0.716774 10.9902 32.3179 -0.46307 -1.33525 -0.671638 7.90665 -91.1289 11.0429 -1.86047 -2.06749 -0.628263 -1.94962 -1.98364 -23.1551 -1.15331 -2.53082 -3.1425 -1.15332 -2.53083 110.797 -51.4539 -68.9698 30.2508 5.65228 -4.91908 -1.31469 -24.5936 -11.5184 -14.6363 -0.9769 2.6114 -74.7307 -47.6492 101.735 -42.6472 -1.99916 -24.3536 17.4048 50.3732 -22.3715 -7.89594 0.101354 -8.23028 13.9776 0.716971 -10.5156 -26.8172 -0.0517408 17.0767 
-88.7332 94.2102 82.4533 104.488 51.3825 79.9766 -177.811 16.7498 87.7986 -62.7589 6.69443 3.34359 53.1142 2.53808 3.39394 56.6534 -1.11943 9.69908 175.451 9.80058 89.9945 -35.2423 -4.93006 0.0739073 67.476 -0.265319 13.023 33.4198 -0.678516 -0.837522 -0.111671 7.85411 -90.6616 11.1611 -0.52962 -1.26611 -0.510392 -0.584814 -1.24159 -23.0404 -0.124647 -1.36673 -3.0278 -0.124649 -1.36674 110.471 -51.0725 -69.4066 29.8008 -0.197814 -7.57452 -2.25196 -21.2259 -21.3673 -18.4934 -1.2493 2.70697 -74.6044 -47.8574 101.92 -44.2379 -8.14806 -20.9463 13.0638 59.4165 -10.4509 -11.4687 0.189633 -7.96284 11.5212 0.309852 -10.5629 -24.8445 -0.0676916 15.5871 
-82.324 94.8656 76.2078 102.616 48.3499 80.7532 -177.285 18.1079 86.7699 -36.2135 6.22913 1.01929 54.2879 3.44357 5.48863 57.3598 -0.862406 11.5898 175.353 3.29094 89.5371 -32.4997 -5.84321 -0.861756 71.264 -2.02775 13.6294 33.0775 -0.661986 -0.113838 0.180198 7.84089 -90.476 11.1915 0.137333 -0.960837 -0.479772 0.0949254 -0.965955 -23.0126 0.41976 -0.875144 -2.99993 0.419742 -0.875158 110.135 -50.4621 -69.8278 29.0247 -4.05723 -10.8707 -6.1752 -20.7761 -32.1121 -15.5207 -0.788674 0.60252 -73.8841 -48.8451 102.972 -42.9865 -14.7072 -15.145 12.1941 60.9218 -5.83383 -12.036 0.167545 -7.41695 11.1768 0.541532 -9.62052 -24.126 0.0555943 15.2858 
